# xmcd CD database file
# Generated: mar ago 26 18:05:50 2003 by KSCD
# 
# Track frame offsets:
#       150
#       21375
#       39536
#       60624
#       80557
#       97298
#       116418
#       134429
#       149283
#       170960
#
# Disc length: 2579 seconds
#
# Revision: 1
# Processed by: cddbd v1.4PL0 Copyright (c) Steve Scherf et al.
# Submitted via: Kscd 1.3.3
#
DISCID=950a110a
DTITLE=eva cassidy - songbird
DYEAR=1900
DGENRE=
TTITLE0=songbird
TTITLE1=
TTITLE2=
TTITLE3=
TTITLE4=
TTITLE5=
TTITLE6=
TTITLE7=
TTITLE8=
TTITLE9=
EXTD=
EXTT0=
EXTT1=
EXTT2=
EXTT3=
EXTT4=
EXTT5=
EXTT6=
EXTT7=
EXTT8=
EXTT9=
PLAYORDER=
